# xmcd
#
# Track frame offsets:
#	150
#	17754
#	26654
#	40571
#	55521
#	66880
#	84683
#	104177
#	121258
#	133352
#	148669
#	163739
#	178033
#	192222
#	209976
#	224318
#
# Disc length: 3137 seconds
#
# Revision: 1
# Processed by: cddbd v1.5.1PL0 Copyright (c) Steve Scherf et al.
# Submitted via: audiograbber 1.83.01
#
DISCID=f60c3f10
DTITLE=Various Artist - Country Legends CD1
DYEAR=1900
DGENRE=
TTITLE0=Juice Ewton and Eddie Abitt - Both To Each Other
TTITLE1=Buck Owens - After The Dance
TTITLE2=Charley Pride - What`s Another Year
TTITLE3=Dolly Parton - I Will Always Love You
TTITLE4=James Darren - Help Me Make It Through The Night
TTITLE5=Patsy Cline and Waylon Jennings - Just Out Of Reach
TTITLE6=Lucky - Broken Dreams
TTITLE7=Lynn Anderson - Blue Bayou
TTITLE8=Del Reeve - Girl On The Billboard
TTITLE9=Freddy Fender - La Paloma
TTITLE10=Merle Haggard - Today I Started Loving You Again
TTITLE11=Jimmy C. Newman - Basile Waltz
TTITLE12=Stonewal Jackson - Don`t Be Angry
TTITLE13=Glen Campell - Colleen
TTITLE14=The Bellamy Brothers - Lovers Live Longer
TTITLE15=Johnny Cash - Oh Lonesome Me
EXTD=
EXTT0=
EXTT1=
EXTT2=
EXTT3=
EXTT4=
EXTT5=
EXTT6=
EXTT7=
EXTT8=
EXTT9=
EXTT10=
EXTT11=
EXTT12=
EXTT13=
EXTT14=
EXTT15=
PLAYORDER=
